<svg width="108" height="108" viewBox="0 0 108 108" fill="none" xmlns="http://www.w3.org/2000/svg">
<defs>
    <linearGradient id="bg" x1="0" y1="0" x2="108" y2="108" gradientUnits="userSpaceOnUse">
        <stop offset="0%" stop-color="#FFDAE3"/>
        <stop offset="50%" stop-color="#FFA6C0"/>
        <stop offset="100%" stop-color="#D4BBE6"/>
    </linearGradient>
    <filter id="glow" x="-20%" y="-20%" width="140%" height="140%">
        <feGaussianBlur stdDeviation="3" result="blur"/>
        <feComposite in="SourceGraphic" in2="blur" operator="over"/>
    </filter>
</defs>
<rect width="108" height="108" fill="url(#bg)"/>
<g filter="url(#glow)">
    <path d="M54 54 C46 34 38 34 50 20 C54 26 54 26 58 20 C70 34 62 34 54 54 Z" fill="#FFFFFF" fill-opacity="0.9"/>
    <path d="M54 54 C74 46 74 38 88 50 C82 54 82 54 88 58 C74 70 74 62 54 54 Z" fill="#FFFFFF" fill-opacity="0.9"/>
    <path d="M54 54 C62 74 70 74 58 88 C54 82 54 82 50 88 C38 74 46 74 54 54 Z" fill="#FFFFFF" fill-opacity="0.9"/>
    <path d="M54 54 C34 62 34 70 20 58 C26 54 26 54 20 50 C34 38 34 46 54 54 Z" fill="#FFFFFF" fill-opacity="0.9"/>
    <circle cx="54" cy="54" r="5" fill="#FFA6C0"/>
    <circle cx="54" cy="46" r="1.5" fill="#FFA6C0"/>
    <circle cx="54" cy="62" r="1.5" fill="#FFA6C0"/>
    <circle cx="62" cy="54" r="1.5" fill="#FFA6C0"/>
    <circle cx="46" cy="54" r="1.5" fill="#FFA6C0"/>
</g>
<path d="M24 24 C20 16 16 16 22 10 Z" fill="#FFFFFF" fill-opacity="0.6"/>
<path d="M84 84 C80 92 88 92 94 86 Z" fill="#FFFFFF" fill-opacity="0.4"/>
</svg>