<svg width="108" height="108" viewBox="0 0 108 108" fill="none" xmlns="http://www.w3.org/2000/svg">
<defs>
    <linearGradient id="bg" x1="0" y1="0" x2="108" y2="108" gradientUnits="userSpaceOnUse">
        <stop offset="0%" stop-color="#FFDAE3"/>
        <stop offset="50%" stop-color="#FFA6C0"/>
        <stop offset="100%" stop-color="#D4BBE6"/>
    </linearGradient>
    <filter id="shadow" x="20" y="20" width="68" height="68">
        <feDropShadow dx="0" dy="4" stdDeviation="4" flood-color="#A06078" flood-opacity="0.2"/>
    </filter>
</defs>
<rect width="108" height="108" fill="url(#bg)"/>
<g filter="url(#shadow)">
    <path d="M30 52 C30 50 32 48 34 48 L74 48 C76 48 78 50 78 52 L78 76 C78 80 74 84 70 84 L38 84 C34 84 30 80 30 76 Z" fill="#FFFFFF" fill-opacity="0.95"/>
    <rect x="26" y="40" width="56" height="12" rx="4" fill="#FFFFFF"/>
    <rect x="48" y="40" width="12" height="44" fill="#FFA6C0" fill-opacity="0.6"/>
    <rect x="30" y="56" width="48" height="8" fill="#FFA6C0" fill-opacity="0.3"/>
    <path d="M54 40 C44 26 30 36 48 40 Z" fill="#FFA6C0" fill-opacity="0.8"/>
    <path d="M54 40 C64 26 78 36 60 40 Z" fill="#FFA6C0" fill-opacity="0.8"/>
    <circle cx="54" cy="40" r="4" fill="#FFFFFF"/>
</g>
<circle cx="24" cy="24" r="2" fill="#FFFFFF"/>
<circle cx="84" cy="30" r="3" fill="#FFFFFF" fill-opacity="0.8"/>
<circle cx="80" cy="80" r="1.5" fill="#FFFFFF"/>
</svg>