<svg width="108" height="108" viewBox="0 0 108 108" fill="none" xmlns="http://www.w3.org/2000/svg">
<defs>
    <linearGradient id="bg" x1="0" y1="0" x2="108" y2="108" gradientUnits="userSpaceOnUse">
        <stop offset="0%" stop-color="#FFDAE3"/>
        <stop offset="50%" stop-color="#FFA6C0"/>
        <stop offset="100%" stop-color="#D4BBE6"/>
    </linearGradient>
    <filter id="shadow" x="10" y="20" width="88" height="68">
        <feDropShadow dx="0" dy="6" stdDeviation="5" flood-color="#A06078" flood-opacity="0.25"/>
    </filter>
</defs>
<rect width="108" height="108" fill="url(#bg)"/>
<g filter="url(#shadow)">
    <rect x="20" y="32" width="68" height="46" rx="6" fill="#FFFFFF"/>
    <path d="M20 32 L54 58 L88 32 L88 78 C88 81.3 85.3 84 82 84 L26 84 C22.7 84 20 81.3 20 78 Z" fill="#FFF5F7"/>
    <path d="M20 78 L54 52 L88 78 C88 81.3 85.3 84 82 84 L26 84 C22.7 84 20 81.3 20 78 Z" fill="#FFFFFF"/>
    <path d="M20 78 L54 52 L88 78" stroke="#FFE0E8" stroke-width="2" fill="none"/>
    <path d="M20 38 C20 34.7 22.7 32 26 32 L82 32 C85.3 32 88 34.7 88 38 L54 62 Z" fill="#FFFFFF" fill-opacity="0.95"/>
    <path d="M20 38 C20 34.7 22.7 32 26 32 L82 32 C85.3 32 88 34.7 88 38 L54 62 Z" stroke="#FFE0E8" stroke-width="1.5" fill="none"/>
    <path d="M54 56 C54 56 46 48 38 56 C30 64 38 76 54 84 C70 76 78 64 70 56 C62 48 54 56 54 56 Z" fill="#FFA6C0"/>
</g>
<path d="M30 22 C30 22 26 18 22 22 C18 26 22 32 30 36 C38 32 42 26 38 22 C34 18 30 22 30 22 Z" fill="#FFFFFF" fill-opacity="0.8"/>
<path d="M84 26 C84 26 81.5 23.5 79 26 C76.5 28.5 79 32.2 84 34.7 C89 32.2 91.5 28.5 89 26 C86.5 23.5 84 26 84 26 Z" fill="#FFFFFF" fill-opacity="0.6"/>
</svg>