<svg width="108" height="108" viewBox="0 0 108 108" fill="none" xmlns="http://www.w3.org/2000/svg">
<defs>
    <linearGradient id="bg" x1="0" y1="0" x2="108" y2="108" gradientUnits="userSpaceOnUse">
        <stop offset="0%" stop-color="#FFDAE3"/>
        <stop offset="50%" stop-color="#FFA6C0"/>
        <stop offset="100%" stop-color="#D4BBE6"/>
    </linearGradient>
    <filter id="softGlow" x="-20%" y="-20%" width="140%" height="140%">
        <feGaussianBlur stdDeviation="4" result="blur" />
        <feComposite in="SourceGraphic" in2="blur" operator="over"/>
    </filter>
</defs>
<rect width="108" height="108" fill="url(#bg)"/>
<path d="M28 64 C20 54 20 40 32 32 C44 24 54 44 54 54 C54 64 64 84 76 76 C88 68 88 54 80 44 C76 39 70 36 64 36" 
      stroke="#FFFFFF" stroke-width="8" stroke-linecap="round" fill="none" filter="url(#softGlow)"/>
<path d="M80 44 C88 54 88 68 76 76 C64 84 54 64 54 54 C54 44 44 24 32 32 C20 40 20 54 28 64 C32 69 38 72 44 72" 
      stroke="#FFDAE3" stroke-width="4" stroke-linecap="round" fill="none"/>
<path d="M54 42 L58 50 L66 54 L58 58 L54 66 L50 58 L42 54 L50 50 Z" fill="#FFFFFF"/>
</svg>