<svg width="108" height="108" viewBox="0 0 108 108" fill="none" xmlns="http://www.w3.org/2000/svg">
<defs>
    <linearGradient id="bg" x1="0" y1="0" x2="108" y2="108" gradientUnits="userSpaceOnUse">
        <stop offset="0%" stop-color="#FFDAE3"/>
        <stop offset="50%" stop-color="#FFA6C0"/>
        <stop offset="100%" stop-color="#D4BBE6"/>
    </linearGradient>
    <filter id="glow" x="-30%" y="-30%" width="160%" height="160%">
        <feGaussianBlur stdDeviation="5" result="blur"/>
        <feComposite in="SourceGraphic" in2="blur" operator="over"/>
    </filter>
</defs>
<rect width="108" height="108" fill="url(#bg)"/>
<g filter="url(#glow)">
    <path d="M34 74 L70 38" stroke="#FFFFFF" stroke-width="6" stroke-linecap="round"/>
    <path d="M42 66 L48 60 M52 56 L58 50 M62 46 L68 40" stroke="#FFA6C0" stroke-width="2" stroke-linecap="round"/>
    <path d="M72 36 L75 24 L78 36 L90 39 L78 42 L75 54 L72 42 L60 39 Z" fill="#FFFFFF"/>
    <circle cx="75" cy="39" r="4" fill="#FFA6C0"/>
</g>
<path d="M28 88 L30 82 L36 80 L30 78 L28 72 L26 78 L20 80 L26 82 Z" fill="#FFFFFF" fill-opacity="0.8"/>
<circle cx="20" cy="66" r="2" fill="#FFFFFF"/>
<circle cx="44" cy="84" r="3" fill="#FFFFFF" fill-opacity="0.6"/>
<circle cx="58" cy="74" r="1.5" fill="#FFFFFF"/>
</svg>