<svg width="108" height="108" viewBox="0 0 108 108" fill="none" xmlns="http://www.w3.org/2000/svg">
<defs>
    <linearGradient id="bg" x1="0" y1="0" x2="108" y2="108" gradientUnits="userSpaceOnUse">
        <stop offset="0%" stop-color="#FFDAE3"/>
        <stop offset="50%" stop-color="#FFA6C0"/>
        <stop offset="100%" stop-color="#D4BBE6"/>
    </linearGradient>
</defs>
<rect width="108" height="108" fill="url(#bg)"/>
<circle cx="54" cy="54" r="32" fill="#FFFFFF" fill-opacity="0.15" stroke="#FFFFFF" stroke-width="3"/>
<path d="M38 42 L34 26 L48 38 Q54 36 60 38 L74 26 L70 42 C78 48 80 58 78 68 C76 78 66 82 54 82 C42 82 32 78 30 68 C28 58 30 48 38 42 Z" fill="#FFFFFF"/>
<path d="M44 58 Q48 54 52 58 M56 58 Q60 54 64 58" stroke="#FFA6C0" stroke-width="3" stroke-linecap="round" fill="none"/>
<path d="M52 66 L54 68 L56 66" stroke="#FFA6C0" stroke-width="2" stroke-linecap="round" stroke-linejoin="round" fill="none"/>
<ellipse cx="38" cy="62" rx="4" ry="2" fill="#FFA6C0" fill-opacity="0.4"/>
<ellipse cx="70" cy="62" rx="4" ry="2" fill="#FFA6C0" fill-opacity="0.4"/>
<path d="M78 28 L80 34 L86 36 L80 38 L78 44 L76 38 L70 36 L76 34 Z" fill="#FFFFFF"/>
</svg>